# Made in Blockbench 4.9.3
mtllib pose1prop.mtl

o bomb
v 0.2093750000000001 0.90625 -0.11562500000000009
v 0.2093750000000001 0.90625 -0.5531250000000001
v 0.2093750000000001 0.4687500000000001 -0.11562500000000009
v 0.2093750000000001 0.4687500000000001 -0.5531250000000001
v -0.22812499999999997 0.90625 -0.5531250000000001
v -0.22812499999999997 0.90625 -0.11562500000000009
v -0.22812499999999997 0.4687500000000001 -0.5531250000000001
v -0.22812499999999997 0.4687500000000001 -0.11562500000000009
vt 0.34375 1
vt 0.6666666666666666 1
vt 0.6666666666666666 0
vt 0.34375 0
vt 0.3333333333333333 1
vt 0.65625 1
vt 0.65625 0
vt 0.3333333333333333 0
vt 0.34375 1
vt 0.6666666666666667 1
vt 0.6666666666666667 0
vt 0.34375 0
vt 0.3333333333333334 1
vt 0.6562500000000002 1
vt 0.6562500000000002 0
vt 0.3333333333333334 0
vt 1 0
vt 0.6770833333333334 0
vt 0.6770833333333334 1
vt 1 1
vt 0.32291666666666663 1
vt 0 1
vt 0 0
vt 0.32291666666666663 0
vn 0 0 -1
vn 1 0 0
vn 0 0 1
vn -1 0 0
vn 0 1 0
vn 0 -1 0
usemtl m_b61495df-6149-2443-3d8b-621c69446e4e
f 4/4/1 7/3/1 5/2/1 2/1/1
f 3/8/2 4/7/2 2/6/2 1/5/2
f 8/12/3 3/11/3 1/10/3 6/9/3
f 7/16/4 8/15/4 6/14/4 5/13/4
f 6/20/5 1/19/5 2/18/5 5/17/5
f 7/24/6 4/23/6 3/22/6 8/21/6